<svg xmlns="http://www.w3.org/2000/svg" shape-rendering="crispEdges" viewBox="0 -0.5 47 47">
  <path stroke="#300" d="M0 0h47M0 1h1m45 0h1M0 2h1m45 0h1M0 3h1m45 0h1M0 4h1m3 0h39m3 0h1M0 5h1m3 0h1m37 0h1m3 0h1M0 6h1m3 0h1m37 0h1m3 0h1M0 7h1m3 0h1m37 0h1m3 0h1M0 8h1m3 0h1m37 0h1m3 0h1M0 9h1m3 0h1m37 0h1m3 0h1M0 10h1m3 0h1m37 0h1m3 0h1M0 11h1m3 0h1m37 0h1m3 0h1M0 12h1m3 0h1m37 0h1m3 0h1M0 13h1m3 0h1m37 0h1m3 0h1M0 14h1m3 0h1m37 0h1m3 0h1M0 15h1m3 0h1m29 0h2m6 0h1m3 0h1M0 16h1m3 0h1m1 0h1m27 0h2m6 0h1m3 0h1M0 17h1m3 0h1m31 0h2m4 0h1m3 0h1M0 18h1m3 0h1m31 0h2m4 0h1m3 0h1M0 19h1m3 0h1m33 0h2m2 0h1m3 0h1M0 20h1m3 0h1m33 0h2m2 0h1m3 0h1M0 21h1m3 0h1m35 0h1m1 0h1m3 0h1M0 22h1m3 0h1m37 0h1m3 0h1M0 23h1m3 0h1m37 0h1m3 0h1M0 24h1m3 0h1m37 0h1m3 0h1M0 25h1m3 0h1m37 0h1m3 0h1M0 26h1m3 0h1m37 0h1m3 0h1M0 27h1m3 0h1m37 0h1m3 0h1M0 28h1m3 0h1m37 0h1m3 0h1M0 29h1m3 0h1m37 0h1m3 0h1M0 30h1m3 0h1m37 0h1m3 0h1M0 31h1m3 0h1m37 0h1m3 0h1M0 32h1m3 0h1m37 0h1m3 0h1M0 33h1m3 0h1m3 0h1m33 0h1m3 0h1M0 34h1m3 0h1m2 0h2m33 0h1m3 0h1M0 35h1m3 0h1m37 0h1m3 0h1M0 36h1m3 0h1m2 0h2m33 0h1m3 0h1M0 37h1m3 0h1m3 0h1m33 0h1m3 0h1M0 38h1m3 0h1m4 0h2m1 0h2m28 0h1m3 0h1M0 39h1m3 0h1m5 0h1m1 0h1m29 0h1m3 0h1M0 40h1m3 0h1m25 0h1m11 0h1m3 0h1M0 41h1m3 0h1m37 0h1m3 0h1M0 42h1m3 0h39m3 0h1M0 43h1m45 0h1M0 44h1m45 0h1M0 45h1m45 0h1M0 46h47"/>
  <path stroke="#ff0071" d="M1 1h45M1 2h1m43 0h1M1 3h1m43 0h1M1 4h1m43 0h1M1 5h1m43 0h1M1 6h1m43 0h1M1 7h1m43 0h1M1 8h1m43 0h1M1 9h1m43 0h1M1 10h1m43 0h1M1 11h1m43 0h1M1 12h1m43 0h1M1 13h1m14 0h2m27 0h1M1 14h1m14 0h2m27 0h1M1 15h1m43 0h1M1 16h1m16 0h1m26 0h1M1 17h1m43 0h1M1 18h1m18 0h1m24 0h1M1 19h1m43 0h1M1 20h1m43 0h1M1 21h1m43 0h1M1 22h1m43 0h1M1 23h1m43 0h1M1 24h1m43 0h1M1 25h1m43 0h1M1 26h1m26 0h1m16 0h1M1 27h1m43 0h1M1 28h1m28 0h1m14 0h1M1 29h1m30 0h2m11 0h1M1 30h1m30 0h2m11 0h1M1 31h1m43 0h1M1 32h1m43 0h1M1 33h1m43 0h1M1 34h1m43 0h1M1 35h1m43 0h1M1 36h1m43 0h1M1 37h1m43 0h1M1 38h1m43 0h1M1 39h1m43 0h1M1 40h1m43 0h1M1 41h1m43 0h1M1 42h1m43 0h1M1 43h1m43 0h1M1 44h1m43 0h1M1 45h45"/>
  <path stroke="#b4003e" d="M2 2h43M2 3h1m41 0h1M2 4h1m41 0h1M2 5h1m41 0h1M2 6h1m41 0h1M2 7h1m41 0h1M2 8h1m41 0h1M2 9h1m41 0h1M2 10h1m41 0h1M2 11h1m41 0h1M2 12h1m41 0h1M2 13h1m41 0h1M2 14h1m41 0h1M2 15h1m7 0h2m32 0h1M2 16h1m7 0h2m32 0h1M2 17h1m21 0h2m18 0h1M2 18h1m21 0h2m18 0h1M2 19h1m19 0h4m18 0h1M2 20h1m19 0h4m18 0h1M2 21h1m17 0h2m4 0h4m14 0h1M2 22h1m17 0h2m4 0h4m14 0h1M2 23h1m23 0h2m16 0h1M2 24h1m23 0h2m16 0h1M2 25h1m15 0h4m2 0h2m18 0h1M2 26h1m15 0h4m2 0h2m18 0h1M2 27h1m15 0h4m22 0h1M2 28h1m15 0h4m22 0h1M2 29h1m12 0h3m26 0h1M2 30h1m11 0h4m26 0h1M2 31h1m13 0h2m26 0h1M2 32h1m13 0h1m27 0h1M2 33h1m4 0h1m5 0h1m30 0h1M2 34h1m9 0h1m31 0h1M2 35h1m8 0h1m18 0h2m12 0h1M2 36h1m27 0h2m12 0h1M2 37h1m4 0h1m36 0h1M2 38h1m41 0h1M2 39h1m6 0h1m3 0h1m30 0h1M2 40h1m41 0h1M2 41h1m41 0h1M2 42h1m41 0h1M2 43h1m41 0h1M2 44h43"/>
  <path stroke="#f3592f" d="M3 3h41M3 4h1m39 0h1M3 5h1m39 0h1M3 6h1m39 0h1M3 7h1m39 0h1M3 8h1m39 0h1M3 9h1m14 0h4m21 0h1M3 10h1m14 0h4m21 0h1M3 11h1m14 0h4m21 0h1M3 12h1m14 0h4m21 0h1M3 13h1m39 0h1M3 14h1m39 0h1M3 15h1m39 0h1M3 16h1m39 0h1M3 17h1m39 0h1M3 18h1m39 0h1M3 19h1m39 0h1M3 20h1m39 0h1M3 21h1m39 0h1M3 22h1m39 0h1M3 23h1m39 0h1M3 24h1m39 0h1M3 25h1m30 0h4m5 0h1M3 26h1m30 0h4m5 0h1M3 27h1m30 0h4m5 0h1M3 28h1m30 0h4m5 0h1M3 29h1m39 0h1M3 30h1m39 0h1M3 31h1m39 0h1M3 32h1m39 0h1M3 33h1m39 0h1M3 34h1m39 0h1M3 35h1m39 0h1M3 36h1m39 0h1M3 37h1m39 0h1M3 38h1m39 0h1M3 39h1m39 0h1M3 40h1m39 0h1M3 41h1m39 0h1M3 42h1m39 0h1M3 43h41"/>
  <path stroke="#cc002a" d="M12 11h4m-4 1h4m-4 1h4m14 0h4m-22 1h4m14 0h2m1 0h2M6 15h2m22 0h4M7 16h1m22 0h4m-8 1h4m-4 1h4m-4 1h4m-4 1h4m-8 1h4m-4 1h4m-4 1h4m-4 1h4m-12 5h1m17 2h4m-19 1h1m14 0h4m-4 1h4m-4 1h4m-6 5h2m-1 1h1"/>
  <path stroke="#ff7a52" d="M16 11h2m-2 1h2m4 1h4m-4 1h4m-8 1h2m2 0h4m2 0h2m-11 1h1m2 0h4m2 0h2m-10 1h2m8 0h2m-11 1h1m8 0h2m-2 3h4m-4 1h4m-4 1h4m-4 1h4m-6 1h2m-1 1h1m0 1h2m-1 1h1m2 1h2m-2 1h2"/>
  <path stroke="#ffb861" d="M22 11h2m-2 1h2m-6 1h4m-4 1h4m-2 1h2m-2 1h2m12 7h2m-2 1h2m-6 1h4m-4 1h4m-2 1h2m-2 1h2"/>
  <path stroke="#590029" d="M6 13h4m-4 1h4m-2 1h2m-2 1h2m12 1h2m-2 1h2m-6 3h1m1 2h2m6 0h2m-10 1h2m6 0h2m-8 1h2m-2 1h2m1 2h1m-12 3h2m-2 1h2m-6 1h3m-3 1h2m1 0h1m-4 1h1m1 0h2m-4 1h4m16 1h4m-4 1h4m-2 1h2m-2 1h2"/>
  <path stroke="#e80051" d="M10 13h2m-2 1h2m7 7h1m-2 1h2m-2 1h2m-2 1h2m-4 3h2m4 0h4m-10 1h2m4 0h3m-7 1h2m-2 1h2m12 5h2m-2 1h2"/>
</svg>
